  0
SECTION
  2
HEADER
  9
$ANGBASE
  50
0.0
  9
$ANGDIR
  70
1
  9
$MEASUREMENT
  70
1
  0
ENDSEC
  0
SECTION
  2
TABLES
  0
TABLE
  2
LTYPE
  70
4
  0
LTYPE
  5
40F
  2
CONTINUOUS
  70
0
  3
Solid line
  72
65
  73
0
  40
0.0
  0
LTYPE
  5
410
  2
DASHDOT
 70
0
  3
Dash Dot ____ _ ____ _
 72
65
 73
4
 40
2.0
 49
1.25
 49
-0.25
 49
0.25
 49
-0.25
  0
LTYPE
  5
411
  2
DASHED
 70
0
  3
Dashed __ __ __ __ __
 72
65
 73
2
 40
0.75
 49
0.5
 49
-0.25
  0
LTYPE
  5
43B
  2
DOTTED
 70
0
  3
Dotted .  .  .  .
 72
65
 73
2
 40
0.2
 49
0.0
 49
-0.2
  0
ENDTAB
  0
TABLE
  2
STYLE
  70
4
  0
STYLE
  2
KICAD
  70
0
  40
0
  41
1
  42
1
  50
0
  71
0
  3
isocp.shx
  0
STYLE
  2
KICADB
  70
0
  40
0
  41
1
  42
1
  50
0
  71
0
  3
isocp.shx
  0
STYLE
  2
KICADI
  70
0
  40
0
  41
1
  42
1
  50
15
  71
0
  3
isocp.shx
  0
STYLE
  2
KICADBI
  70
0
  40
0
  41
1
  42
1
  50
15
  71
0
  3
isocp.shx
  0
ENDTAB
  0
TABLE
  2
LAYER
  70
1
  0
LAYER
  2
BLACK
  70
0
  62
7
  6
CONTINUOUS
  0
ENDTAB
  0
ENDSEC
  0
SECTION
  2
ENTITIES
0
LINE
8
BLACK
6
CONTINUOUS
10
58.9508
20
-88.7711
11
59.0039
21
-88.6579
0
LINE
8
BLACK
6
CONTINUOUS
10
59.0039
20
-88.6579
11
59.0867
21
-88.5642
0
LINE
8
BLACK
6
CONTINUOUS
10
59.0867
20
-88.5642
11
59.1924
21
-88.4974
0
LINE
8
BLACK
6
CONTINUOUS
10
59.1924
20
-88.4974
11
59.3126
21
-88.4631
0
LINE
8
BLACK
6
CONTINUOUS
10
59.3126
20
-88.4631
11
59.4377
21
-88.4638
0
LINE
8
BLACK
6
CONTINUOUS
10
59.4377
20
-88.4638
11
59.5575
21
-88.4997
0
LINE
8
BLACK
6
CONTINUOUS
10
59.5575
20
-88.4997
11
59.6624
21
-88.5677
0
LINE
8
BLACK
6
CONTINUOUS
10
59.6624
20
-88.5677
11
59.744
21
-88.6624
0
LINE
8
BLACK
6
CONTINUOUS
10
59.744
20
-88.6624
11
59.7958
21
-88.7762
0
LINE
8
BLACK
6
CONTINUOUS
10
59.7958
20
-88.7762
11
59.8135
21
-88.9
0
LINE
8
BLACK
6
CONTINUOUS
10
59.8135
20
-88.9
11
59.8134
21
-88.9108
0
LINE
8
BLACK
6
CONTINUOUS
10
59.8134
20
-88.9108
11
59.7926
21
-89.0341
0
LINE
8
BLACK
6
CONTINUOUS
10
59.7926
20
-89.0341
11
59.7381
21
-89.1466
0
LINE
8
BLACK
6
CONTINUOUS
10
59.7381
20
-89.1466
11
59.6542
21
-89.2393
0
LINE
8
BLACK
6
CONTINUOUS
10
59.6542
20
-89.2393
11
59.5476
21
-89.3047
0
LINE
8
BLACK
6
CONTINUOUS
10
59.5476
20
-89.3047
11
59.427
21
-89.3376
0
LINE
8
BLACK
6
CONTINUOUS
10
59.427
20
-89.3376
11
59.302
21
-89.3353
0
LINE
8
BLACK
6
CONTINUOUS
10
59.302
20
-89.3353
11
59.1826
21
-89.298
0
LINE
8
BLACK
6
CONTINUOUS
10
59.1826
20
-89.298
11
59.0786
21
-89.2288
0
LINE
8
BLACK
6
CONTINUOUS
10
59.0786
20
-89.2288
11
58.9981
21
-89.133
0
LINE
8
BLACK
6
CONTINUOUS
10
58.9981
20
-89.133
11
58.9477
21
-89.0186
0
LINE
8
BLACK
6
CONTINUOUS
10
58.9477
20
-89.0186
11
58.9322
21
-88.9
0
LINE
8
BLACK
6
CONTINUOUS
10
58.9322
20
-88.9
11
58.9315
21
-88.8946
0
LINE
8
BLACK
6
CONTINUOUS
10
58.9315
20
-88.8946
11
58.9508
21
-88.7711
0
LINE
8
BLACK
6
CONTINUOUS
10
59.1228
20
-89.1095
11
59.2095
21
-89.1823
0
LINE
8
BLACK
6
CONTINUOUS
10
59.2095
20
-89.1823
11
59.3159
21
-89.221
0
LINE
8
BLACK
6
CONTINUOUS
10
59.3159
20
-89.221
11
59.4291
21
-89.221
0
LINE
8
BLACK
6
CONTINUOUS
10
59.4291
20
-89.221
11
59.5355
21
-89.1823
0
LINE
8
BLACK
6
CONTINUOUS
10
59.5355
20
-89.1823
11
59.6222
21
-89.1095
0
LINE
8
BLACK
6
CONTINUOUS
10
59.6222
20
-89.1095
11
59.6788
21
-89.0115
0
LINE
8
BLACK
6
CONTINUOUS
10
59.6788
20
-89.0115
11
59.6985
21
-88.9
0
LINE
8
BLACK
6
CONTINUOUS
10
59.6985
20
-88.9
11
59.6788
21
-88.7885
0
LINE
8
BLACK
6
CONTINUOUS
10
59.6788
20
-88.7885
11
59.6222
21
-88.6905
0
LINE
8
BLACK
6
CONTINUOUS
10
59.6222
20
-88.6905
11
59.5355
21
-88.6177
0
LINE
8
BLACK
6
CONTINUOUS
10
59.5355
20
-88.6177
11
59.4291
21
-88.579
0
LINE
8
BLACK
6
CONTINUOUS
10
59.4291
20
-88.579
11
59.3159
21
-88.579
0
LINE
8
BLACK
6
CONTINUOUS
10
59.3159
20
-88.579
11
59.2095
21
-88.6177
0
LINE
8
BLACK
6
CONTINUOUS
10
59.2095
20
-88.6177
11
59.1228
21
-88.6905
0
LINE
8
BLACK
6
CONTINUOUS
10
59.1228
20
-88.6905
11
59.0662
21
-88.7885
0
LINE
8
BLACK
6
CONTINUOUS
10
59.0662
20
-88.7885
11
59.0465
21
-88.9
0
LINE
8
BLACK
6
CONTINUOUS
10
59.0465
20
-88.9
11
59.0662
21
-89.0115
0
LINE
8
BLACK
6
CONTINUOUS
10
59.0662
20
-89.0115
11
59.1228
21
-89.1095
  0
ENDSEC
  0
EOF
